{
  "accessors": [
    {
      "bufferView": 2,
      "componentType": 5126,
      "count": 65532,
      "max": [
        7.6514153480529785,
        39.03868103027344,
        7.603052616119385
      ],
      "min": [
        -7.581056118011475,
        -0.2442004233598709,
        -7.616814136505127
      ],
      "type": "VEC3"
    },
    {
      "bufferView": 2,
      "byteOffset": 786384,
      "componentType": 5126,
      "count": 65532,
      "max": [
        0.9944726824760437,
        0.9689061641693115,
        0.9857950210571289
      ],
      "min": [
        -0.9944726824760437,
        -0.9689061641693115,
        -0.9857950210571289
      ],
      "type": "VEC3"
    },
    {
      "bufferView": 1,
      "componentType": 5126,
      "count": 65532,
      "max": [
        0.875,
        1.0
      ],
      "min": [
        0.125,
        0.0
      ],
      "type": "VEC2"
    },
    {
      "bufferView": 0,
      "componentType": 5125,
      "count": 301947,
      "type": "SCALAR"
    },
    {
      "bufferView": 2,
      "byteOffset": 1572768,
      "componentType": 5126,
      "count": 65532,
      "max": [
        7.593766212463379,
        38.537960052490234,
        7.675903797149658
      ],
      "min": [
        -7.608024597167969,
        -0.2756512463092804,
        -7.657266616821289
      ],
      "type": "VEC3"
    },
    {
      "bufferView": 2,
      "byteOffset": 2359152,
      "componentType": 5126,
      "count": 65532,
      "max": [
        0.9944726824760437,
        0.9689061641693115,
        0.9857950210571289
      ],
      "min": [
        -0.9944726824760437,
        -0.9689061641693115,
        -0.9857950210571289
      ],
      "type": "VEC3"
    },
    {
      "bufferView": 1,
      "byteOffset": 524256,
      "componentType": 5126,
      "count": 65532,
      "max": [
        0.875,
        1.0
      ],
      "min": [
        0.125,
        0.0
      ],
      "type": "VEC2"
    },
    {
      "bufferView": 0,
      "byteOffset": 1207788,
      "componentType": 5125,
      "count": 301923,
      "type": "SCALAR"
    },
    {
      "bufferView": 2,
      "byteOffset": 3145536,
      "componentType": 5126,
      "count": 25212,
      "max": [
        7.660259246826172,
        38.58082962036133,
        7.646854400634766
      ],
      "min": [
        -7.6206536293029785,
        -0.15564726293087006,
        -7.55551290512085
      ],
      "type": "VEC3"
    },
    {
      "bufferView": 2,
      "byteOffset": 3448080,
      "componentType": 5126,
      "count": 25212,
      "max": [
        0.9944726824760437,
        0.9689061641693115,
        0.9857950210571289
      ],
      "min": [
        -0.9944726824760437,
        -0.9689061641693115,
        -0.9857950210571289
      ],
      "type": "VEC3"
    },
    {
      "bufferView": 1,
      "byteOffset": 1048512,
      "componentType": 5126,
      "count": 25212,
      "max": [
        0.875,
        1.0
      ],
      "min": [
        0.125,
        0.0
      ],
      "type": "VEC2"
    },
    {
      "bufferView": 0,
      "byteOffset": 2415480,
      "componentType": 5125,
      "count": 116130,
      "type": "SCALAR"
    },
    {
      "bufferView": 2,
      "byteOffset": 3750624,
      "componentType": 5126,
      "count": 12689,
      "max": [
        0.7326462268829346,
        3.468740940093994,
        0.732646107673645
      ],
      "min": [
        -0.7326464056968689,
        3.2839810848236084,
        -0.732646107673645
      ],
      "type": "VEC3"
    },
    {
      "bufferView": 2,
      "byteOffset": 3902892,
      "componentType": 5126,
      "count": 12689,
      "max": [
        1.0,
        1.0,
        1.0
      ],
      "min": [
        -1.0,
        -1.0,
        -1.0
      ],
      "type": "VEC3"
    },
    {
      "bufferView": 1,
      "byteOffset": 1250208,
      "componentType": 5126,
      "count": 12689,
      "max": [
        0.9891979098320007,
        0.9878731369972229
      ],
      "min": [
        0.2874940037727356,
        0.28781408071517944
      ],
      "type": "VEC2"
    },
    {
      "bufferView": 0,
      "byteOffset": 2880000,
      "componentType": 5125,
      "count": 75936,
      "type": "SCALAR"
    },
    {
      "bufferView": 2,
      "byteOffset": 4055160,
      "componentType": 5126,
      "count": 7521,
      "max": [
        0.8997077941894531,
        -0.9956878423690796,
        0.8997076749801636
      ],
      "min": [
        -0.8997076749801636,
        -1.2861417531967163,
        -0.8997076749801636
      ],
      "type": "VEC3"
    },
    {
      "bufferView": 2,
      "byteOffset": 4145412,
      "componentType": 5126,
      "count": 7521,
      "max": [
        1.0,
        3.362642246429459e-06,
        1.0
      ],
      "min": [
        -1.0,
        -1.0,
        -1.0
      ],
      "type": "VEC3"
    },
    {
      "bufferView": 1,
      "byteOffset": 1351720,
      "componentType": 5126,
      "count": 7521,
      "max": [
        0.4379853904247284,
        0.4457549452781677
      ],
      "min": [
        0.022273659706115723,
        0.029947102069854736
      ],
      "type": "VEC2"
    },
    {
      "bufferView": 0,
      "byteOffset": 3183744,
      "componentType": 5125,
      "count": 44928,
      "type": "SCALAR"
    },
    {
      "bufferView": 2,
      "byteOffset": 4235664,
      "componentType": 5126,
      "count": 4680,
      "max": [
        0.9038946628570557,
        3.416257381439209,
        0.9038946628570557
      ],
      "min": [
        -0.9038946628570557,
        -0.9956878423690796,
        -0.9038946628570557
      ],
      "type": "VEC3"
    },
    {
      "bufferView": 2,
      "byteOffset": 4291824,
      "componentType": 5126,
      "count": 4680,
      "max": [
        1.0,
        0.5034323930740356,
        1.0
      ],
      "min": [
        -1.0,
        -0.24349434673786163,
        -1.0
      ],
      "type": "VEC3"
    },
    {
      "bufferView": 1,
      "byteOffset": 1411888,
      "componentType": 5126,
      "count": 4680,
      "max": [
        0.9995005130767822,
        0.9531904458999634
      ],
      "min": [
        0.0004995018243789673,
        0.01592347025871277
      ],
      "type": "VEC2"
    },
    {
      "bufferView": 0,
      "byteOffset": 3363456,
      "componentType": 5125,
      "count": 27264,
      "type": "SCALAR"
    },
    {
      "bufferView": 2,
      "byteOffset": 4347984,
      "componentType": 5126,
      "count": 20912,
      "max": [
        1.642346739768982,
        18.733182907104492,
        1.7106937170028687
      ],
      "min": [
        -1.6389756202697754,
        18.5996036529541,
        -3.6597249507904053
      ],
      "type": "VEC3"
    },
    {
      "bufferView": 2,
      "byteOffset": 4598928,
      "componentType": 5126,
      "count": 20912,
      "max": [
        0.9999971985816956,
        1.0,
        0.9999945759773254
      ],
      "min": [
        -0.9999971389770508,
        -1.0,
        -1.0
      ],
      "type": "VEC3"
    },
    {
      "bufferView": 1,
      "byteOffset": 1449328,
      "componentType": 5126,
      "count": 20912,
      "max": [
        0.9902595281600952,
        0.9833211898803711
      ],
      "min": [
        0.009740459732711315,
        0.006234901025891304
      ],
      "type": "VEC2"
    },
    {
      "bufferView": 0,
      "byteOffset": 3472512,
      "componentType": 5125,
      "count": 123504,
      "type": "SCALAR"
    },
    {
      "bufferView": 2,
      "byteOffset": 4849872,
      "componentType": 5126,
      "count": 1875,
      "max": [
        0.9084709882736206,
        1.948944091796875,
        0.9084709882736206
      ],
      "min": [
        -0.9084707498550415,
        -2.0154571533203125,
        -0.9084707498550415
      ],
      "type": "VEC3"
    },
    {
      "bufferView": 2,
      "byteOffset": 4872372,
      "componentType": 5126,
      "count": 1875,
      "max": [
        1.0,
        1.0,
        1.0
      ],
      "min": [
        -1.0,
        -1.0,
        -1.0
      ],
      "type": "VEC3"
    },
    {
      "bufferView": 1,
      "byteOffset": 1616624,
      "componentType": 5126,
      "count": 1875,
      "max": [
        0.9274694323539734,
        0.9322470426559448
      ],
      "min": [
        0.05459935963153839,
        0.036460697650909424
      ],
      "type": "VEC2"
    },
    {
      "bufferView": 0,
      "byteOffset": 3966528,
      "componentType": 5125,
      "count": 10368,
      "type": "SCALAR"
    }
  ],
  "asset": {
    "extras": {
      "author": "Bruce Lima (https://sketchfab.com/bw.lima)",
      "license": "CC-BY-4.0 (http://creativecommons.org/licenses/by/4.0/)",
      "source": "https://sketchfab.com/3d-models/monster-energy-can-and-water-condensed-647e9a1f5d6847f7a3487d71d7c07ff7",
      "title": "Monster energy can and water condensed"
    },
    "generator": "Sketchfab-12.68.0",
    "version": "2.0"
  },
  "bufferViews": [
    {
      "buffer": 0,
      "byteLength": 4008000,
      "name": "floatBufferViews",
      "target": 34963
    },
    {
      "buffer": 0,
      "byteLength": 1631624,
      "byteOffset": 4008000,
      "byteStride": 8,
      "name": "floatBufferViews",
      "target": 34962
    },
    {
      "buffer": 0,
      "byteLength": 4894872,
      "byteOffset": 5639624,
      "byteStride": 12,
      "name": "floatBufferViews",
      "target": 34962
    }
  ],
  "buffers": [
    {
      "byteLength": 10534496,
      "uri": "scene.bin"
    }
  ],
  "extensionsUsed": [
    "KHR_materials_transmission",
    "KHR_materials_clearcoat"
  ],
  "images": [
    {
      "uri": "textures/lambert2_metallicRoughness.png"
    },
    {
      "uri": "textures/lambert4_baseColor.png"
    },
    {
      "uri": "textures/lambert4_metallicRoughness.png"
    },
    {
      "uri": "textures/lambert3_metallicRoughness.png"
    }
  ],
  "materials": [
    {
      "alphaMode": "BLEND",
      "doubleSided": true,
      "extensions": {
        "KHR_materials_transmission": {
          "transmissionFactor": 1.0
        }
      },
      "name": "VRayMtl4",
      "pbrMetallicRoughness": {
        "baseColorFactor": [
          0.0,
          0.0,
          0.0,
          0.25
        ],
        "metallicFactor": 0.0,
        "roughnessFactor": 0.0016666759144176137
      }
    },
    {
      "doubleSided": true,
      "name": "lambert2",
      "pbrMetallicRoughness": {
        "baseColorFactor": [
          0.20438685846335017,
          0.1923099061228193,
          0.1923099061228193,
          1.0
        ],
        "metallicRoughnessTexture": {
          "index": 0
        },
        "roughnessFactor": 0.48651516076290247
      }
    },
    {
      "doubleSided": true,
      "extensions": {
        "KHR_materials_clearcoat": {
          "clearcoatFactor": 0.15318182742956912,
          "clearcoatRoughnessFactor": 0.12331351196882087
        }
      },
      "name": "lambert4",
      "pbrMetallicRoughness": {
        "baseColorTexture": {
          "index": 1
        },
        "metallicFactor": 0.0,
        "metallicRoughnessTexture": {
          "index": 2
        },
        "roughnessFactor": 0.7982127330986387
      }
    },
    {
      "doubleSided": true,
      "name": "lambert3",
      "pbrMetallicRoughness": {
        "baseColorFactor": [
          0.001250185785184564,
          0.49203814104980514,
          0.014075655357733927,
          1.0
        ],
        "metallicRoughnessTexture": {
          "index": 3
        }
      }
    }
  ],
  "meshes": [
    {
      "name": "pCube1_0_VRayMtl4_0",
      "primitives": [
        {
          "attributes": {
            "NORMAL": 1,
            "POSITION": 0,
            "TEXCOORD_0": 2
          },
          "indices": 3,
          "material": 0,
          "mode": 4
        }
      ]
    },
    {
      "name": "pCube1_0_VRayMtl4_0",
      "primitives": [
        {
          "attributes": {
            "NORMAL": 5,
            "POSITION": 4,
            "TEXCOORD_0": 6
          },
          "indices": 7,
          "material": 0,
          "mode": 4
        }
      ]
    },
    {
      "name": "pCube1_0_VRayMtl4_0",
      "primitives": [
        {
          "attributes": {
            "NORMAL": 9,
            "POSITION": 8,
            "TEXCOORD_0": 10
          },
          "indices": 11,
          "material": 0,
          "mode": 4
        }
      ]
    },
    {
      "name": "gotas_lata:lata_energetico:polySurface1_lambert2_0",
      "primitives": [
        {
          "attributes": {
            "NORMAL": 13,
            "POSITION": 12,
            "TEXCOORD_0": 14
          },
          "indices": 15,
          "material": 1,
          "mode": 4
        }
      ]
    },
    {
      "name": "gotas_lata:lata_energetico:polySurface2_lambert2_0",
      "primitives": [
        {
          "attributes": {
            "NORMAL": 17,
            "POSITION": 16,
            "TEXCOORD_0": 18
          },
          "indices": 19,
          "material": 1,
          "mode": 4
        }
      ]
    },
    {
      "name": "gotas_lata:lata_energetico:polySurface2_lambert4_0",
      "primitives": [
        {
          "attributes": {
            "NORMAL": 21,
            "POSITION": 20,
            "TEXCOORD_0": 22
          },
          "indices": 23,
          "material": 2,
          "mode": 4
        }
      ]
    },
    {
      "name": "gotas_lata:lata_energetico:polySurface3_lambert3_0",
      "primitives": [
        {
          "attributes": {
            "NORMAL": 25,
            "POSITION": 24,
            "TEXCOORD_0": 26
          },
          "indices": 27,
          "material": 3,
          "mode": 4
        }
      ]
    },
    {
      "name": "lata_energetico:pCylinder2_lambert3_0",
      "primitives": [
        {
          "attributes": {
            "NORMAL": 29,
            "POSITION": 28,
            "TEXCOORD_0": 30
          },
          "indices": 31,
          "material": 3,
          "mode": 4
        }
      ]
    }
  ],
  "nodes": [
    {
      "children": [
        1
      ],
      "matrix": [
        1.0,
        -1.6081226229577292e-16,
        -7.573410645162126e-32,
        0.0,
        5.527796347546378e-33,
        5.053215392444312e-16,
        -1.0,
        0.0,
        1.6081226229577292e-16,
        1.0,
        5.053215392444312e-16,
        0.0,
        -0.004432303830981255,
        -1.0291016101837158,
        0.012779078446328411,
        1.0
      ],
      "name": "Sketchfab_model"
    },
    {
      "children": [
        2
      ],
      "matrix": [
        1.0,
        0.0,
        0.0,
        0.0,
        0.0,
        0.0,
        1.0,
        0.0,
        0.0,
        -1.0,
        0.0,
        0.0,
        0.0,
        0.0,
        0.0,
        1.0
      ],
      "name": "157f6eb6f7064d58aaa0a32dd7bc75e1.fbx"
    },
    {
      "children": [
        3,
        7,
        13,
        15
      ],
      "name": "RootNode"
    },
    {
      "children": [
        4,
        5,
        6
      ],
      "matrix": [
        -0.6427876096865388,
        7.871877887341979e-17,
        0.7660444431189786,
        0.0,
        2.1627806744176268e-16,
        1.0,
        7.871877887341979e-17,
        0.0,
        -0.7660444431189786,
        2.1627806744176268e-16,
        -0.6427876096865388,
        0.0,
        0.0,
        0.0,
        0.0,
        1.0
      ],
      "name": "pCube1_0"
    },
    {
      "mesh": 0,
      "name": "pCube1_0_VRayMtl4_0"
    },
    {
      "mesh": 1,
      "name": "pCube1_0_VRayMtl4_0"
    },
    {
      "mesh": 2,
      "name": "pCube1_0_VRayMtl4_0"
    },
    {
      "children": [
        8,
        10
      ],
      "matrix": [
        8.163702011108398,
        0.0,
        0.0,
        0.0,
        0.0,
        8.163702011108398,
        0.0,
        0.0,
        0.0,
        0.0,
        8.163702011108398,
        0.0,
        0.0,
        -8.9945707321167,
        0.0,
        1.0
      ],
      "name": "gotas_lata:lata_energetico:pCylinder1"
    },
    {
      "children": [
        9
      ],
      "matrix": [
        0.9693882465362549,
        0.0,
        0.0,
        0.0,
        0.0,
        0.6123405694961548,
        0.0,
        0.0,
        0.0,
        0.0,
        0.9693882465362549,
        0.0,
        0.0,
        3.7471117973327637,
        0.0,
        1.0
      ],
      "name": "gotas_lata:lata_energetico:polySurface1"
    },
    {
      "mesh": 3,
      "name": "gotas_lata:lata_energetico:polySurface1_lambert2_0"
    },
    {
      "children": [
        11,
        12
      ],
      "matrix": [
        1.0,
        0.0,
        0.0,
        0.0,
        0.0,
        1.0,
        0.0,
        0.0,
        0.0,
        0.0,
        1.0,
        0.0,
        0.0,
        2.391657590866089,
        0.0,
        1.0
      ],
      "name": "gotas_lata:lata_energetico:polySurface2"
    },
    {
      "mesh": 4,
      "name": "gotas_lata:lata_energetico:polySurface2_lambert2_0"
    },
    {
      "mesh": 5,
      "name": "gotas_lata:lata_energetico:polySurface2_lambert4_0"
    },
    {
      "children": [
        14
      ],
      "matrix": [
        1.0,
        0.0,
        0.0,
        0.0,
        0.0,
        1.0,
        0.0,
        0.0,
        0.0,
        0.0,
        1.0,
        0.0,
        0.0,
        19.51595115661621,
        0.0,
        1.0
      ],
      "name": "gotas_lata:lata_energetico:polySurface3"
    },
    {
      "mesh": 6,
      "name": "gotas_lata:lata_energetico:polySurface3_lambert3_0"
    },
    {
      "children": [
        16
      ],
      "matrix": [
        0.3771756589412689,
        0.0,
        0.0,
        0.0,
        0.0,
        0.09678629785776138,
        0.0,
        0.0,
        0.0,
        0.0,
        0.3771756589412689,
        0.0,
        0.0,
        38.17412185668945,
        0.0,
        1.0
      ],
      "name": "lata_energetico:pCylinder2"
    },
    {
      "mesh": 7,
      "name": "lata_energetico:pCylinder2_lambert3_0"
    }
  ],
  "samplers": [
    {
      "magFilter": 9729,
      "minFilter": 9987,
      "wrapS": 10497,
      "wrapT": 10497
    }
  ],
  "scene": 0,
  "scenes": [
    {
      "name": "Sketchfab_Scene",
      "nodes": [
        0
      ]
    }
  ],
  "textures": [
    {
      "sampler": 0,
      "source": 0
    },
    {
      "sampler": 0,
      "source": 1
    },
    {
      "sampler": 0,
      "source": 2
    },
    {
      "sampler": 0,
      "source": 3
    }
  ]
}
